<?xml version="1.0" encoding="utf-8"?>
<!-- Generator: Adobe Illustrator 12.0.0, SVG Export Plug-In . SVG Version: 6.00 Build 51448)  -->
<!DOCTYPE svg PUBLIC "-//W3C//DTD SVG 1.1//EN" "http://www.w3.org/Graphics/SVG/1.1/DTD/svg11.dtd" [
	<!ENTITY ns_svg "http://www.w3.org/2000/svg">
	<!ENTITY ns_xlink "http://www.w3.org/1999/xlink">
]>
<svg  version="1.1" id="Layer_1" xmlns="&ns_svg;" xmlns:xlink="&ns_xlink;" width="142.658" height="37.049"
	 viewBox="0 0 142.658 37.049" overflow="visible" enable-background="new 0 0 142.658 37.049" xml:space="preserve">
<path fill="#E7E7E8" d="M139.502,20.998h-1.168l-5.377-8.975l-6.487-10.93h2.338l4.149,6.5l6.545,10.067V20.998z M137.282,0v1.094
	h2.22v12.771L132.957,3.51L130.735,0h-8.122v1.094h2.163v19.904h-2.163v1.612h5.317v-1.612h-1.461V4.314l6.487,10.702l4.676,7.594
	h3.507V1.094h1.519V0H137.282z"/>
<path fill="#E7E7E8" d="M49.208,20.998h-0.933h-0.935V1.094h0.935h0.933V20.998z M56.397,20.998h-4.033V1.094h1.578V0h-5.668h-4.209
	v1.094h2.162v19.904h-2.162v1.611h4.209h13.558v-7.535h-1.577C60.255,18.985,59.494,20.998,56.397,20.998"/>
<path fill="#E7E7E8" d="M104.261,20.998L98.534,4.775l-1.285-3.682h1.285h1.346l7.303,19.904H104.261z M115.949,1.094v19.904h-0.935
	h-0.935V1.094h0.935H115.949z M98.534,12.254h-5.201l3.098-9.492l2.104,5.869l1.287,3.623H98.534z M82.871,20.998h-0.937H81V1.094
	h0.935h0.937V20.998z M72.526,14.958l-2.803-5.639l-4.092-8.226h2.104l1.988,3.625l4.09,7.363L72.526,14.958z M110.164,0v1.094
	h2.104v19.904h-2.104L102.157,0h-3.623h-2.455l-7.188,20.998h-3.389V1.094h2.043V0h-5.611h-2.629l-4.324,9.551L70.132,0h-0.409
	h-7.19v1.094h1.403v19.904h-1.403v1.612h4.851v-1.612h-1.753V4.486l4.092,7.826l3.389,6.557L79.306,4.2v16.798h-1.401v1.612h4.03
	h10.755v-1.612h-1.868l2.277-7.19h5.436l1.577,0.057l2.514,7.134h-2.104v1.612h14.494h5.61v-1.612h-2.163V1.094h2.163V0h-5.61
	H110.164z"/>
<path fill="#E7E7E8" d="M25.715,13.061l3.448-10.299l3.448,10.299H25.715z M36.468,20.998L29.806,1.094h1.403h1.11l7.013,19.904
	H36.468z M34.422,0h-3.213H28.93l-7.013,20.998h-1.929v1.612h5.318v-1.612H23.26l2.222-6.902h7.538l2.28,6.902h-2.28v1.612h10.461
	v-1.612h-1.226L34.422,0z"/>
<path fill="#E7E7E8" d="M12.916,20.08c-0.234,0.573-0.643,0.918-1.11,0.918H8.3v-9.205h2.454c0.817,0,1.636,1.094,2.162,2.36
	c0.409,0.921,0.643,1.897,0.643,2.588C13.559,17.893,13.384,19.216,12.916,20.08l0.643,0.918c1.053-1.265,1.169-2.243,1.169-4.257
	c0-1.667-0.761-3.624-1.812-5.005c-0.176-0.287-0.41-0.575-0.584-0.748c0.174-0.287,0.408-0.519,0.584-0.748
	c1.051-1.323,1.812-2.876,1.812-4.371c0-1.785-0.702-3.222-1.169-4.775c2.104,0.633,3.683,2.301,3.683,4.775
	c0,2.416-1.929,3.681-4.268,5.119c2.631,1.438,4.268,2.934,4.268,5.753c0,2.821-1.287,3.741-3.683,4.257L12.916,20.08z
	 M5.904,20.998H4.968H4.033V1.094h0.935h0.936V20.998z M8.3,1.094h3.506c0.467,0,0.817,0.633,1.11,1.438
	c0.409,1.092,0.585,2.53,0.585,3.337c0,0.575-0.234,1.38-0.585,2.186c-0.467,1.149-1.226,2.186-1.987,2.128H8.3V1.094z
	 M16.89,10.988c2.162-1.438,2.572-3.163,2.572-5.119S17.883,0,14.553,0h-1.637H4.968H0v1.094h2.221v19.904H0v1.612h4.968h7.948
	h1.637c2.57,0,5.435-2.53,5.435-5.869C19.988,13.462,18.937,12.427,16.89,10.988"/>
<path fill="#E7E7E8" d="M54.235,32.736c-0.174,0.113-0.468,0.229-0.819,0.288h-0.525h-0.642v-2.764h0.584
	c0.234,0,0.409,0,0.583,0.059c0.819,0.114,1.17,0.576,1.17,1.323C54.585,32.16,54.468,32.505,54.235,32.736 M54.645,30.147
	c-0.351-0.23-0.76-0.403-1.229-0.462c-0.174,0-0.409-0.058-0.642-0.058h-1.227v7.193h0.702v-3.165h0.642
	c0.176,0,0.351,0,0.525-0.057c0.469-0.058,0.878-0.175,1.229-0.403c0.408-0.288,0.642-0.808,0.642-1.554
	C55.287,30.896,55.053,30.434,54.645,30.147"/>
<path fill="#E7E7E8" d="M91.17,33.196c-0.116-0.115-0.293-0.229-0.467-0.289c-0.235-0.114-0.468-0.287-0.877-0.46
	c-0.526-0.345-0.817-0.748-0.817-1.208c0-0.401,0.118-0.689,0.351-0.862c0.233-0.172,0.467-0.286,0.817-0.286
	c0.467,0,0.817,0.229,1.111,0.631l0.466-0.345c-0.233-0.403-0.466-0.633-0.7-0.748c-0.291-0.116-0.526-0.116-0.877-0.116
	c-0.526,0-0.994,0.116-1.285,0.461c-0.352,0.346-0.526,0.748-0.526,1.266c0,0.347,0.06,0.576,0.235,0.806
	c0.231,0.289,0.466,0.519,0.699,0.748c0.234,0.114,0.526,0.288,0.994,0.574c0.409,0.232,0.643,0.404,0.76,0.461
	c0.291,0.286,0.41,0.635,0.41,1.15c0,0.461-0.119,0.864-0.41,1.152c-0.232,0.229-0.586,0.345-0.994,0.345
	c-0.76,0-1.168-0.345-1.459-1.094l-0.526,0.288c0.231,0.574,0.526,0.922,0.875,1.093c0.351,0.174,0.701,0.286,1.11,0.286
	c0.468,0,0.877-0.112,1.229-0.345c0.291-0.171,0.466-0.46,0.643-0.747c0.117-0.344,0.176-0.689,0.176-1.035
	C92.106,34.23,91.813,33.656,91.17,33.196"/>
<path fill="#E7E7E8" d="M63.585,33.885h-1.227l1.227-3.105v-0.058l1.229,3.163H63.585z M63.585,29.571l-3.039,7.25h0.644
	l0.934-2.417h1.461h1.462l0.876,2.417h0.701l-2.98-7.421L63.585,29.571z"/>
<rect x="81.994" y="29.628" fill="#E7E7E8" width="0.703" height="7.192"/>
<path fill="#E7E7E8" d="M72.761,32.907v-2.646h0.469h0.643c0.292,0.059,0.525,0.116,0.699,0.289c0.294,0.172,0.41,0.575,0.41,1.035
	c0,0.574-0.174,0.921-0.467,1.094c-0.175,0.057-0.41,0.115-0.643,0.171c-0.178,0-0.41,0.058-0.643,0.058H72.761z M73.813,33.426
	h0.059c0.409-0.059,0.876-0.172,1.227-0.459c0.351-0.288,0.526-0.749,0.526-1.325c0-1.207-0.584-1.839-1.753-1.955
	c-0.178,0-0.292-0.058-0.469-0.058h-1.284v7.191h0.642v-3.395h0.352l0.76,1.038l1.695,2.356h0.816l-2.512-3.337L73.813,33.426z"/>
</svg>
