<?xml version="1.0" encoding="utf-8"?>
<!-- Generator: Adobe Illustrator 12.0.0, SVG Export Plug-In . SVG Version: 6.00 Build 51448)  -->
<!DOCTYPE svg PUBLIC "-//W3C//DTD SVG 1.1//EN" "http://www.w3.org/Graphics/SVG/1.1/DTD/svg11.dtd" [
	<!ENTITY ns_svg "http://www.w3.org/2000/svg">
	<!ENTITY ns_xlink "http://www.w3.org/1999/xlink">
]>
<svg  version="1.1" id="Layer_1" xmlns="&ns_svg;" xmlns:xlink="&ns_xlink;" width="153.232" height="23.272"
	 viewBox="0 0 153.232 23.272" overflow="visible" enable-background="new 0 0 153.232 23.272" xml:space="preserve">
<g>
	<path fill="#E7E7E8" d="M3.855,13.112h1.461c1.74,0,2.954,0.302,3.609,0.894c0.676,0.602,1.004,1.325,1.004,2.213
		c0,0.911-0.341,1.643-1.04,2.234c-0.664,0.548-1.74,0.824-3.196,0.824H3.855V13.112z M7.252,9.107
		C6.719,9.606,5.849,9.859,4.666,9.859H3.855V3.95h0.941c1.069,0,1.889,0.25,2.438,0.741C7.776,5.179,8.05,5.911,8.05,6.87
		C8.05,7.859,7.782,8.611,7.252,9.107 M10.1,10.721c1.083-1.084,1.632-2.396,1.632-3.908c0-0.892-0.197-1.786-0.584-2.655
		c-0.379-0.863-0.899-1.594-1.55-2.177C8.955,1.418,8.157,1.012,7.229,0.775c-0.903-0.23-2.125-0.349-3.632-0.349H0v22.448h5.345
		c1.538,0,2.839-0.144,3.874-0.425c0.959-0.295,1.833-0.826,2.598-1.579c1.277-1.228,1.923-2.75,1.923-4.525
		c0-1.353-0.364-2.557-1.082-3.577C12.019,11.839,11.16,11.15,10.1,10.721"/>
	<rect x="23.423" y="0.426" fill="#E7E7E8" width="3.854" height="22.448"/>
	<path fill="#E7E7E8" d="M48.795,19.692c-2.083,0-3.947-0.769-5.54-2.281c-1.601-1.512-2.411-3.467-2.411-5.818
		c0-2.236,0.782-4.143,2.328-5.665c1.545-1.538,3.466-2.319,5.709-2.319c2.253,0,4.169,0.781,5.696,2.319
		c1.535,1.531,2.313,3.456,2.313,5.722c0,2.239-0.788,4.166-2.342,5.723C52.993,18.911,51.058,19.692,48.795,19.692 M48.925,0.014
		c-3.269,0-6.108,1.144-8.438,3.398c-2.341,2.255-3.527,4.995-3.527,8.138c0,3.576,1.302,6.509,3.871,8.719
		c2.327,1.993,4.992,3.004,7.921,3.004c3.307,0,6.17-1.139,8.509-3.385c2.332-2.234,3.514-4.999,3.514-8.209
		c0-3.19-1.178-5.962-3.498-8.236C54.967,1.167,52.156,0.014,48.925,0.014"/>
	<path fill="#E7E7E8" d="M78.741,9.351l-2.226-0.896c-1.511-0.61-2.277-1.408-2.277-2.367c0-0.711,0.275-1.284,0.841-1.755
		c0.567-0.48,1.299-0.724,2.169-0.724c0.709,0,1.292,0.14,1.74,0.423c0.424,0.243,0.886,0.787,1.371,1.62l0.123,0.21l3.151-1.838
		l-0.12-0.205C82.029,1.285,79.93,0,77.275,0c-1.959,0-3.623,0.585-4.943,1.738c-1.331,1.151-2.005,2.604-2.005,4.319
		c0,2.543,1.59,4.493,4.731,5.8l2.15,0.881c0.543,0.23,1.016,0.475,1.408,0.727c0.382,0.248,0.699,0.515,0.937,0.795
		c0.234,0.272,0.409,0.577,0.519,0.903c0.111,0.33,0.169,0.698,0.169,1.098c0,1.006-0.317,1.812-0.972,2.462
		c-0.65,0.652-1.449,0.97-2.441,0.97c-1.258,0-2.186-0.435-2.842-1.329c-0.357-0.457-0.612-1.318-0.762-2.558l-0.031-0.262
		l-3.895,0.843l0.033,0.222c0.314,2.095,1.123,3.746,2.402,4.908c1.304,1.164,2.974,1.756,4.963,1.756
		c2.101,0,3.883-0.693,5.302-2.061c1.41-1.357,2.125-3.102,2.125-5.18c0-1.557-0.44-2.891-1.31-3.968
		C81.953,10.997,80.582,10.084,78.741,9.351"/>
	<rect x="93.619" y="0.426" fill="#E7E7E8" width="3.854" height="22.448"/>
	<polygon fill="#E7E7E8" points="112.123,0.427 108.27,0.427 108.27,22.875 118.684,22.875 118.684,19.277 112.123,19.277 	"/>
	<polygon fill="#E7E7E8" points="144.691,0.427 139.507,0.427 131.167,8.843 131.167,0.427 127.313,0.427 127.313,22.875 
		131.167,22.875 131.167,13.643 131.598,13.217 139.537,22.875 144.682,22.875 134.344,10.627 	"/>
	<path fill="#E7E7E8" d="M149.995,3.021h0.104c0.451,0,0.675-0.153,0.675-0.459c0-0.283-0.216-0.425-0.653-0.425h-0.126V3.021z
		 M150.672,3.467l1.067,1.351h-0.767l-0.976-1.28v1.28h-0.628V1.585h0.657c0.459,0,0.794,0.081,1.004,0.241
		c0.235,0.186,0.351,0.43,0.351,0.729c0,0.201-0.063,0.391-0.188,0.563c-0.126,0.167-0.285,0.279-0.479,0.336L150.672,3.467z
		 M150.373,0.803c-0.646,0-1.203,0.235-1.667,0.706c-0.465,0.471-0.696,1.033-0.696,1.682c0,0.664,0.231,1.231,0.696,1.704
		c0.464,0.471,1.026,0.705,1.689,0.705c0.655,0,1.216-0.233,1.68-0.702c0.464-0.47,0.696-1.037,0.696-1.703
		c0-0.356-0.092-0.724-0.273-1.104c-0.18-0.357-0.418-0.639-0.716-0.848C151.363,0.95,150.895,0.803,150.373,0.803 M153.232,3.194
		c0,0.78-0.277,1.442-0.829,1.99c-0.554,0.547-1.224,0.821-2.008,0.821c-0.785,0-1.457-0.275-2.015-0.825
		c-0.554-0.546-0.83-1.211-0.83-1.993c0-0.433,0.09-0.827,0.271-1.184c0.181-0.378,0.433-0.7,0.758-0.963
		c0.53-0.431,1.124-0.646,1.784-0.646c0.438,0,0.833,0.081,1.188,0.243c0.504,0.217,0.91,0.562,1.217,1.031
		C153.078,2.141,153.232,2.649,153.232,3.194"/>
</g>
</svg>
