<?xml version="1.0" encoding="utf-8"?>
<!-- Generator: Adobe Illustrator 12.0.0, SVG Export Plug-In . SVG Version: 6.00 Build 51448)  -->
<!DOCTYPE svg PUBLIC "-//W3C//DTD SVG 1.1//EN" "http://www.w3.org/Graphics/SVG/1.1/DTD/svg11.dtd" [
	<!ENTITY ns_svg "http://www.w3.org/2000/svg">
	<!ENTITY ns_xlink "http://www.w3.org/1999/xlink">
]>
<svg  version="1.1" id="Layer_1" xmlns="&ns_svg;" xmlns:xlink="&ns_xlink;" width="60.787" height="24.641"
	 viewBox="0 0 60.787 24.641" overflow="visible" enable-background="new 0 0 60.787 24.641" xml:space="preserve">
<g>
	<path fill="#E7E7E8" d="M15.787,14.693c-0.159,1.25-0.571,2.217-1.26,2.951c-0.632,0.678-1.519,1.006-2.703,1.006
		c-0.907,0-1.669-0.166-2.271-0.493c-0.621-0.339-1.108-0.773-1.491-1.332c-0.401-0.584-0.699-1.254-0.885-1.993
		c-0.192-0.773-0.292-1.583-0.292-2.406c0-0.865,0.1-1.713,0.294-2.52c0.188-0.769,0.485-1.458,0.887-2.051
		C8.448,7.29,8.934,6.852,9.553,6.514c0.603-0.328,1.366-0.493,2.271-0.493c0.473,0,0.93,0.076,1.357,0.228
		c0.436,0.154,0.824,0.367,1.162,0.637c0.34,0.271,0.626,0.588,0.852,0.944c0.214,0.338,0.348,0.702,0.409,1.112l0.131,0.862h6.712
		L22.318,8.68c-0.158-1.382-0.553-2.632-1.171-3.714c-0.617-1.08-1.415-2.001-2.369-2.738c-0.942-0.727-2.022-1.286-3.21-1.665
		C14.396,0.189,13.136,0,11.824,0C10.006,0,8.339,0.324,6.87,0.965C5.397,1.605,4.133,2.508,3.117,3.642
		C2.11,4.765,1.33,6.095,0.795,7.595C0.268,9.08,0,10.704,0,12.426c0,1.684,0.268,3.28,0.796,4.744
		c0.536,1.482,1.319,2.793,2.327,3.896c1.018,1.112,2.28,1.996,3.754,2.629c1.465,0.629,3.131,0.945,4.947,0.945
		c1.466,0,2.837-0.225,4.071-0.667c1.253-0.448,2.363-1.108,3.302-1.964c0.935-0.853,1.698-1.896,2.263-3.103
		c0.562-1.192,0.912-2.537,1.045-3.999l0.102-1.102h-6.707L15.787,14.693z"/>
	<polygon fill="#E7E7E8" points="37.462,8.811 30.629,8.811 30.629,0.514 23.744,0.514 23.744,24.156 30.629,24.156 30.629,14.831 
		37.462,14.831 37.462,24.156 44.348,24.156 44.348,0.514 37.462,0.514 	"/>
	<rect x="46.536" y="0.514" fill="#E7E7E8" width="6.885" height="23.643"/>
	<polygon fill="#E7E7E8" points="57.339,1.087 56.568,1.087 56.568,3.982 55.858,3.982 55.858,1.087 55.089,1.087 55.089,0.515 
		57.339,0.515 	"/>
	<polygon fill="#E7E7E8" points="58.715,0.514 59.218,2.962 59.229,2.962 59.736,0.514 60.787,0.514 60.787,3.982 60.136,3.982 
		60.136,1.214 60.127,1.214 59.501,3.982 58.947,3.982 58.319,1.214 58.311,1.214 58.311,3.982 57.658,3.982 57.658,0.514 	"/>
</g>
</svg>
