<?xml version="1.0" encoding="utf-8"?>
<!-- Generator: Adobe Illustrator 12.0.0, SVG Export Plug-In . SVG Version: 6.00 Build 51448)  -->
<!DOCTYPE svg PUBLIC "-//W3C//DTD SVG 1.1//EN" "http://www.w3.org/Graphics/SVG/1.1/DTD/svg11.dtd" [
	<!ENTITY ns_svg "http://www.w3.org/2000/svg">
	<!ENTITY ns_xlink "http://www.w3.org/1999/xlink">
]>
<svg  version="1.1" id="Layer_1" xmlns="&ns_svg;" xmlns:xlink="&ns_xlink;" width="88.752" height="49.804"
	 viewBox="0 0 88.752 49.804" overflow="visible" enable-background="new 0 0 88.752 49.804" xml:space="preserve">
<g>
	<polygon fill="#E7E7E8" points="16.209,0 16.209,2.47 4.484,2.47 4.484,9.476 14.768,9.476 14.768,11.944 4.484,11.944 
		4.484,22.038 1.505,22.038 1.505,0 	"/>
	<rect x="19.22" fill="#E7E7E8" width="2.664" height="22.038"/>
	<path fill="#E7E7E8" d="M28.845,22.038h-2.666V6.08h2.666V22.038z M26.179,0h2.666v3.21h-2.666V0z"/>
	<path fill="#E7E7E8" d="M45.321,11.744c-0.2-0.711-0.502-1.342-0.911-1.897c-0.406-0.557-0.928-0.999-1.567-1.328
		c-0.638-0.328-1.384-0.493-2.242-0.493c-0.897,0-1.661,0.174-2.288,0.524c-0.628,0.35-1.14,0.808-1.536,1.373
		c-0.398,0.566-0.685,1.209-0.862,1.93c-0.177,0.721-0.266,1.451-0.266,2.191c0,0.782,0.094,1.538,0.281,2.269
		c0.188,0.73,0.486,1.374,0.894,1.929c0.407,0.557,0.935,1.003,1.583,1.343c0.648,0.341,1.432,0.509,2.352,0.509
		s1.688-0.174,2.307-0.523c0.614-0.35,1.111-0.814,1.487-1.39c0.377-0.576,0.646-1.235,0.815-1.975
		c0.167-0.741,0.251-1.503,0.251-2.285C45.618,13.18,45.519,12.454,45.321,11.744 M35.742,6.08v2.161h0.063
		c0.439-0.885,1.128-1.527,2.069-1.929c0.94-0.401,1.977-0.603,3.104-0.603c1.255,0,2.347,0.227,3.275,0.679
		c0.93,0.452,1.706,1.065,2.32,1.838c0.616,0.771,1.083,1.661,1.396,2.67c0.313,1.008,0.47,2.078,0.47,3.209s-0.15,2.202-0.453,3.21
		c-0.305,1.009-0.764,1.888-1.381,2.639c-0.616,0.752-1.391,1.342-2.319,1.775c-0.931,0.431-2.013,0.647-3.245,0.647
		c-0.398,0-0.842-0.042-1.333-0.123c-0.493-0.083-0.978-0.216-1.457-0.4c-0.482-0.187-0.937-0.438-1.366-0.757
		c-0.428-0.319-0.788-0.715-1.08-1.189h-0.063v8.211h-2.666V6.08H35.742z"/>
	<rect x="51.137" y="12.223" fill="#E7E7E8" width="9.061" height="2.47"/>
	<rect x="64.336" fill="#E7E7E8" width="2.979" height="22.038"/>
	<path fill="#E7E7E8" d="M74.4,6.08v2.532h0.062c1.108-1.935,2.863-2.902,5.268-2.902c1.066,0,1.954,0.144,2.667,0.433
		c0.708,0.289,1.283,0.689,1.723,1.204c0.438,0.514,0.747,1.127,0.926,1.836c0.176,0.71,0.266,1.497,0.266,2.361v10.494h-2.665
		V11.235c0-0.988-0.293-1.77-0.877-2.346c-0.587-0.576-1.392-0.864-2.415-0.864c-0.815,0-1.521,0.124-2.116,0.37
		c-0.597,0.247-1.092,0.598-1.489,1.05c-0.398,0.453-0.695,0.982-0.894,1.588c-0.199,0.608-0.298,1.273-0.298,1.992v9.013h-2.666
		V6.08H74.4z"/>
	<polygon fill="#E7E7E8" points="0,49.185 3.48,49.185 3.48,28.073 0,28.073 0,27.641 10.096,27.641 10.096,28.073 6.615,28.073 
		6.615,38.165 17.057,38.165 17.057,28.073 13.577,28.073 13.577,27.641 23.671,27.641 23.671,28.073 20.191,28.073 20.191,49.185 
		23.671,49.185 23.671,49.617 13.577,49.617 13.577,49.185 17.057,49.185 17.057,38.599 6.615,38.599 6.615,49.185 10.096,49.185 
		10.096,49.617 0,49.617 	"/>
	<path fill="#E7E7E8" d="M37.818,33.624l-2.993,7.795h5.988L37.818,33.624z M28.975,49.241h2.396l7.347-19.182h0.652l7.404,19.182
		h2.422v0.376h-8.382v-0.376h3.021l-2.857-7.446h-6.313l-2.858,7.446h3.021v0.376h-5.851V49.241z"/>
	<polygon fill="#E7E7E8" points="53.876,49.241 56.896,49.241 56.896,30.917 53.876,30.917 53.876,30.54 62.64,30.54 62.64,30.917 
		59.617,30.917 59.617,49.241 62.64,49.241 62.64,49.617 53.876,49.617 	"/>
	<path fill="#E7E7E8" d="M73.906,39.194h2.502c0.51,0,0.971-0.061,1.39-0.187c0.417-0.125,0.774-0.345,1.074-0.656
		c0.301-0.312,0.53-0.737,0.694-1.272c0.162-0.535,0.245-1.216,0.245-2.036c0-0.929-0.122-1.676-0.368-2.237
		c-0.244-0.563-0.562-0.987-0.953-1.272c-0.389-0.286-0.824-0.474-1.305-0.563c-0.481-0.089-0.958-0.133-1.43-0.133
		c-0.327,0-0.657,0.004-0.993,0.013c-0.335,0.01-0.621,0.031-0.856,0.067V39.194z M68.163,49.241h3.021V30.917h-3.021V30.54h5.171
		c0.218,0,0.437-0.002,0.653-0.014c0.217-0.007,0.437-0.02,0.653-0.039c0.217,0,0.436-0.004,0.652-0.012
		c0.219-0.01,0.436-0.015,0.654-0.015c1.07,0,2.014,0.059,2.829,0.175c0.816,0.117,1.579,0.451,2.286,1.005
		c0.636,0.481,1.085,1.027,1.349,1.633c0.262,0.608,0.394,1.181,0.394,1.716c0,0.269-0.051,0.611-0.149,1.031
		c-0.1,0.419-0.319,0.848-0.653,1.286c-0.337,0.437-0.821,0.84-1.457,1.204c-0.635,0.369-1.477,0.613-2.528,0.738v0.053
		c0.289,0.037,0.684,0.104,1.183,0.202c0.499,0.098,1.006,0.263,1.523,0.495c0.519,0.232,0.993,0.541,1.429,0.925
		c0.437,0.384,0.745,0.88,0.926,1.486c0.108,0.356,0.186,0.763,0.231,1.219c0.044,0.456,0.081,0.926,0.107,1.406
		c0.027,0.482,0.055,0.946,0.081,1.394c0.029,0.447,0.079,0.822,0.151,1.126c0.109,0.464,0.28,0.883,0.518,1.259
		c0.234,0.374,0.616,0.563,1.143,0.563c0.234,0,0.48-0.045,0.734-0.135c0.255-0.089,0.48-0.231,0.682-0.428l0.244,0.294
		c-0.092,0.072-0.195,0.148-0.313,0.229c-0.119,0.081-0.268,0.156-0.449,0.228c-0.181,0.07-0.404,0.129-0.668,0.174
		c-0.262,0.043-0.585,0.066-0.965,0.066c-0.727,0-1.33-0.088-1.811-0.268c-0.481-0.179-0.866-0.441-1.156-0.791
		c-0.29-0.348-0.504-0.775-0.64-1.285s-0.23-1.104-0.284-1.78l-0.192-2.44c-0.073-0.892-0.253-1.589-0.544-2.089
		s-0.631-0.866-1.021-1.098c-0.392-0.232-0.793-0.371-1.21-0.415c-0.418-0.044-0.781-0.067-1.09-0.067h-2.721v9.671h3.021v0.376
		h-8.764V49.241z"/>
	<path fill="#E7E7E8" d="M86.971,32.082c0.071,0,0.14-0.002,0.202-0.007c0.063-0.004,0.121-0.017,0.169-0.038
		c0.052-0.021,0.091-0.056,0.12-0.099c0.03-0.044,0.044-0.106,0.044-0.187c0-0.067-0.013-0.122-0.039-0.161
		s-0.062-0.068-0.103-0.091c-0.042-0.022-0.091-0.034-0.144-0.043c-0.056-0.008-0.109-0.011-0.162-0.011H86.64v0.636H86.971z
		 M87.11,31.191c0.243,0,0.421,0.048,0.539,0.143c0.115,0.096,0.173,0.239,0.173,0.433c0,0.18-0.051,0.313-0.153,0.396
		s-0.229,0.133-0.382,0.148l0.583,0.887h-0.341l-0.554-0.864H86.64v0.864h-0.318v-2.007H87.11z M85.672,32.774
		c0.072,0.177,0.175,0.334,0.305,0.465c0.128,0.131,0.279,0.235,0.456,0.309c0.175,0.075,0.366,0.113,0.57,0.113
		c0.202,0,0.391-0.038,0.563-0.113c0.175-0.073,0.327-0.178,0.455-0.309c0.129-0.131,0.23-0.288,0.303-0.465
		c0.073-0.18,0.109-0.375,0.109-0.587c0-0.205-0.036-0.395-0.109-0.573c-0.072-0.176-0.174-0.33-0.303-0.461
		c-0.128-0.13-0.28-0.233-0.455-0.307c-0.173-0.075-0.361-0.113-0.563-0.113c-0.204,0-0.396,0.038-0.57,0.113
		c-0.177,0.073-0.328,0.177-0.456,0.307c-0.13,0.131-0.232,0.285-0.305,0.461c-0.072,0.179-0.11,0.368-0.11,0.573
		C85.562,32.399,85.6,32.595,85.672,32.774 M85.385,31.515c0.095-0.209,0.221-0.391,0.381-0.542c0.158-0.153,0.347-0.273,0.559-0.36
		c0.213-0.088,0.439-0.131,0.679-0.131s0.464,0.043,0.675,0.131c0.212,0.087,0.396,0.207,0.557,0.36
		c0.158,0.151,0.284,0.333,0.378,0.542c0.092,0.208,0.14,0.432,0.14,0.673c0,0.249-0.048,0.478-0.14,0.688
		c-0.094,0.209-0.22,0.392-0.378,0.545c-0.16,0.155-0.345,0.275-0.557,0.36c-0.211,0.086-0.436,0.129-0.675,0.129
		s-0.466-0.043-0.679-0.129c-0.212-0.085-0.4-0.205-0.559-0.36c-0.16-0.153-0.286-0.336-0.381-0.545
		c-0.094-0.21-0.14-0.438-0.14-0.688C85.245,31.946,85.291,31.723,85.385,31.515"/>
</g>
</svg>
