<?xml version="1.0" encoding="utf-8"?>
<!-- Generator: Adobe Illustrator 12.0.0, SVG Export Plug-In . SVG Version: 6.00 Build 51448)  -->
<!DOCTYPE svg PUBLIC "-//W3C//DTD SVG 1.1//EN" "http://www.w3.org/Graphics/SVG/1.1/DTD/svg11.dtd" [
	<!ENTITY ns_svg "http://www.w3.org/2000/svg">
	<!ENTITY ns_xlink "http://www.w3.org/1999/xlink">
]>
<svg  version="1.1" id="Layer_1" xmlns="&ns_svg;" xmlns:xlink="&ns_xlink;" width="186.15" height="22.286"
	 viewBox="0 0 186.15 22.286" overflow="visible" enable-background="new 0 0 186.15 22.286" xml:space="preserve">
<g>
	<polygon fill="#E7E7E8" points="0,21.091 4.196,0 11.034,15.247 18.12,0 21.889,21.091 18.804,21.091 16.881,9.25 10.983,21.994 
		5.253,9.236 3.109,21.091 	"/>
	<path fill="#E7E7E8" d="M36.588,13.543l-2.957-6.669l-3.096,6.669H36.588z M37.813,16.327h-8.531l-2.219,4.763h-3.239l9.86-20.848
		l9.51,20.848h-3.289L37.813,16.327z"/>
	<path fill="#E7E7E8" d="M48.693,10.482h0.955c2.847,0,4.272-1.071,4.272-3.214c0-2.008-1.386-3.011-4.156-3.011h-1.071V10.482z
		 M52.437,12.729l6.169,8.361h-3.679l-5.692-8.029h-0.541v8.029h-3.007V1.475h3.524c2.632,0,4.533,0.488,5.704,1.46
		c1.289,1.086,1.935,2.517,1.935,4.295c0,1.39-0.403,2.583-1.212,3.582C54.827,11.812,53.76,12.452,52.437,12.729"/>
	<path fill="#E7E7E8" d="M75.872,2.529v3.506c-1.739-1.431-3.536-2.147-5.395-2.147c-2.047,0-3.772,0.726-5.175,2.174
		c-1.411,1.44-2.118,3.2-2.118,5.285c0,2.058,0.707,3.794,2.118,5.21c1.41,1.414,3.14,2.12,5.188,2.12
		c1.058,0,1.957-0.17,2.698-0.507c0.411-0.172,0.84-0.4,1.282-0.688c0.443-0.286,0.91-0.634,1.4-1.04v3.57
		c-1.72,0.957-3.527,1.434-5.42,1.434c-2.848,0-5.279-0.977-7.291-2.933c-2.005-1.977-3.008-4.355-3.008-7.142
		c0-2.499,0.839-4.727,2.517-6.682c2.065-2.398,4.737-3.596,8.015-3.596C72.474,1.094,74.203,1.572,75.872,2.529"/>
	<rect x="87.821" y="1.475" fill="#E7E7E8" width="3.01" height="19.616"/>
	<polygon fill="#E7E7E8" points="95.617,21.091 95.617,0.14 110.149,15.105 110.149,1.475 113.157,1.475 113.157,22.286 
		98.626,7.357 98.626,21.091 	"/>
	<path fill="#E7E7E8" d="M120.939,18.309h1.858c1.358,0,2.356-0.264,2.993-0.789c0.672-0.566,1.007-1.286,1.007-2.158
		c0-0.848-0.323-1.56-0.969-2.136c-0.629-0.566-1.75-0.85-3.367-0.85h-1.522V18.309z M120.939,9.896h0.941
		c1.119,0,1.938-0.242,2.459-0.729c0.52-0.488,0.78-1.205,0.78-2.155c0-0.922-0.267-1.624-0.801-2.102
		c-0.533-0.479-1.307-0.718-2.322-0.718h-1.058V9.896z M117.932,21.091V1.475h2.994c1.333,0,2.396,0.104,3.187,0.305
		c0.802,0.204,1.477,0.547,2.027,1.028c0.558,0.5,1.002,1.123,1.33,1.868c0.335,0.755,0.502,1.516,0.502,2.287
		c0,1.406-0.545,2.596-1.638,3.571c1.057,0.354,1.891,0.977,2.504,1.866c0.618,0.882,0.928,1.905,0.928,3.075
		c0,1.533-0.552,2.829-1.652,3.888c-0.663,0.651-1.405,1.104-2.23,1.356c-0.904,0.248-2.036,0.371-3.396,0.371H117.932z"/>
	<path fill="#E7E7E8" d="M143.744,13.543l-2.957-6.669l-3.098,6.669H143.744z M144.969,16.327h-8.53l-2.22,4.763h-3.24l9.861-20.848
		l9.513,20.848h-3.293L144.969,16.327z"/>
	<polygon fill="#E7E7E8" points="152.841,21.091 152.841,0.14 167.373,15.105 167.373,1.475 170.38,1.475 170.38,22.286 
		155.85,7.357 155.85,21.091 	"/>
	<polygon fill="#E7E7E8" points="186.15,4.258 178.162,4.258 178.162,8.971 185.919,8.971 185.919,11.752 178.162,11.752 
		178.162,18.309 186.15,18.309 186.15,21.09 175.156,21.09 175.156,1.476 186.15,1.476 	"/>
</g>
</svg>
