<?xml version="1.0" encoding="utf-8"?>
<!-- Generator: Adobe Illustrator 12.0.0, SVG Export Plug-In . SVG Version: 6.00 Build 51448)  -->
<!DOCTYPE svg PUBLIC "-//W3C//DTD SVG 1.1//EN" "http://www.w3.org/Graphics/SVG/1.1/DTD/svg11.dtd" [
	<!ENTITY ns_svg "http://www.w3.org/2000/svg">
	<!ENTITY ns_xlink "http://www.w3.org/1999/xlink">
]>
<svg  version="1.1" id="Layer_1" xmlns="&ns_svg;" xmlns:xlink="&ns_xlink;" width="263.571" height="22.736"
	 viewBox="0 0 263.571 22.736" overflow="visible" enable-background="new 0 0 263.571 22.736" xml:space="preserve">
<g>
	<polygon fill="#E7E7E8" points="3.808,0.544 7.886,0.544 12.984,15.643 18.128,0.544 22.203,0.544 25.893,22.192 21.845,22.192 
		19.486,8.521 14.815,22.192 11.126,22.192 6.496,8.521 4.081,22.192 0,22.192 	"/>
	<path fill="#E7E7E8" d="M42.319,4.032c-2.036,0-3.747,0.695-5.133,2.09c-1.387,1.394-2.08,3.164-2.08,5.313
		c0,2.394,0.873,4.287,2.619,5.681c1.357,1.089,2.913,1.634,4.668,1.634c1.985,0,3.677-0.708,5.073-2.12
		c1.398-1.413,2.096-3.154,2.096-5.225c0-2.06-0.704-3.803-2.11-5.23C46.045,4.746,44.334,4.032,42.319,4.032 M42.364,0
		c3.111,0,5.786,1.108,8.025,3.325s3.358,4.921,3.358,8.109c0,3.158-1.104,5.831-3.313,8.021c-2.209,2.188-4.889,3.28-8.041,3.28
		c-3.3,0-6.043-1.121-8.227-3.368c-2.184-2.249-3.276-4.916-3.276-8.007c0-2.07,0.509-3.973,1.526-5.709
		c1.017-1.737,2.416-3.113,4.196-4.129C38.393,0.508,40.309,0,42.364,0"/>
	<path fill="#E7E7E8" d="M64.919,9.005h1.312c1.33,0,2.248-0.171,2.75-0.517c0.501-0.344,0.752-0.915,0.752-1.712
		c0-0.471-0.124-0.884-0.373-1.233c-0.248-0.35-0.582-0.599-0.998-0.753c-0.417-0.15-1.182-0.229-2.295-0.229h-1.148V9.005z
		 M60.734,0.544h4.435c2.428,0,4.157,0.215,5.189,0.642c1.03,0.426,1.858,1.135,2.485,2.125c0.628,0.991,0.941,2.165,0.941,3.518
		c0,1.421-0.346,2.612-1.038,3.568c-0.693,0.957-1.737,1.68-3.132,2.171l5.21,9.625h-4.576l-4.946-9.169h-0.383v9.169h-4.185V0.544z
		"/>
	<path fill="#E7E7E8" d="M91.302,4.032c-2.036,0-3.747,0.695-5.133,2.09c-1.387,1.394-2.08,3.164-2.08,5.313
		c0,2.394,0.873,4.287,2.619,5.681c1.357,1.089,2.913,1.634,4.669,1.634c1.985,0,3.676-0.708,5.072-2.12
		c1.398-1.413,2.096-3.154,2.096-5.225c0-2.06-0.704-3.803-2.11-5.23C95.028,4.746,93.317,4.032,91.302,4.032 M91.347,0
		c3.111,0,5.786,1.108,8.025,3.325c2.239,2.217,3.359,4.921,3.359,8.109c0,3.158-1.105,5.831-3.314,8.021
		c-2.209,2.188-4.889,3.28-8.04,3.28c-3.301,0-6.044-1.121-8.228-3.368c-2.183-2.249-3.276-4.916-3.276-8.007
		c0-2.07,0.509-3.973,1.526-5.709c1.017-1.737,2.416-3.113,4.196-4.129C87.376,0.508,89.292,0,91.347,0"/>
	<path fill="#E7E7E8" d="M129.644,4.349l-2.927,2.748c-1.992-2.072-4.232-3.109-6.722-3.109c-2.1,0-3.87,0.707-5.309,2.122
		c-1.439,1.414-2.159,3.157-2.159,5.229c0,1.445,0.319,2.726,0.956,3.847c0.638,1.117,1.539,1.996,2.703,2.635
		c1.166,0.64,2.46,0.959,3.884,0.959c1.215,0,2.325-0.225,3.332-0.671c1.004-0.446,2.11-1.261,3.315-2.438l2.838,2.914
		c-1.625,1.562-3.161,2.644-4.605,3.247c-1.445,0.604-3.095,0.905-4.948,0.905c-3.418,0-6.217-1.067-8.394-3.201
		c-2.178-2.133-3.266-4.868-3.266-8.204c0-2.159,0.495-4.077,1.487-5.754c0.992-1.677,2.412-3.026,4.26-4.047
		c1.849-1.021,3.84-1.53,5.972-1.53c1.814,0,3.561,0.377,5.24,1.131C126.979,1.885,128.429,2.958,129.644,4.349"/>
	<path fill="#E7E7E8" d="M156.273,4.349l-2.927,2.748c-1.993-2.072-4.233-3.109-6.722-3.109c-2.103,0-3.871,0.707-5.311,2.122
		c-1.438,1.414-2.158,3.157-2.158,5.229c0,1.445,0.319,2.726,0.956,3.847c0.638,1.117,1.538,1.996,2.703,2.635
		c1.165,0.64,2.46,0.959,3.884,0.959c1.215,0,2.325-0.225,3.33-0.671c1.008-0.446,2.111-1.261,3.317-2.438l2.837,2.914
		c-1.625,1.562-3.16,2.644-4.604,3.247c-1.447,0.604-3.095,0.905-4.949,0.905c-3.418,0-6.217-1.067-8.394-3.201
		c-2.178-2.133-3.266-4.868-3.266-8.204c0-2.159,0.495-4.077,1.487-5.754c0.99-1.677,2.412-3.026,4.259-4.047
		C142.566,0.51,144.558,0,146.69,0c1.813,0,3.56,0.377,5.24,1.131C153.61,1.885,155.058,2.958,156.273,4.349"/>
	<path fill="#E7E7E8" d="M171.549,6.283l-2.951,7.433h5.885L171.549,6.283z M169.4,0.544h4.244l8.457,21.648h-4.35l-1.721-4.46
		h-8.973l-1.789,4.46h-4.351L169.4,0.544z"/>
	<polygon fill="#E7E7E8" points="188.109,0.544 192.125,0.544 201.533,14.789 201.533,0.544 205.72,0.544 205.72,22.192 
		201.693,22.192 192.295,7.99 192.295,22.192 188.109,22.192 	"/>
	<path fill="#E7E7E8" d="M223.834,4.032c-2.034,0-3.746,0.695-5.131,2.09c-1.389,1.394-2.08,3.164-2.08,5.313
		c0,2.394,0.873,4.287,2.619,5.681c1.354,1.089,2.912,1.634,4.668,1.634c1.984,0,3.676-0.708,5.072-2.12
		c1.396-1.413,2.096-3.154,2.096-5.225c0-2.06-0.703-3.803-2.11-5.23C227.562,4.746,225.85,4.032,223.834,4.032 M223.881,0
		c3.111,0,5.785,1.108,8.025,3.325c2.238,2.217,3.356,4.921,3.356,8.109c0,3.158-1.104,5.831-3.313,8.021
		c-2.207,2.188-4.888,3.28-8.039,3.28c-3.302,0-6.043-1.121-8.228-3.368c-2.185-2.249-3.276-4.916-3.276-8.007
		c0-2.07,0.51-3.973,1.525-5.709c1.018-1.737,2.416-3.113,4.195-4.129C219.908,0.508,221.826,0,223.881,0"/>
	<rect x="241.666" y="0.545" fill="#E7E7E8" width="4.156" height="21.647"/>
	<polygon fill="#E7E7E8" points="253.287,0.544 257.473,0.544 257.473,18.263 263.571,18.263 263.571,22.192 253.287,22.192 	"/>
</g>
</svg>
