<?xml version="1.0" encoding="utf-8"?>
<!-- Generator: Adobe Illustrator 12.0.0, SVG Export Plug-In . SVG Version: 6.00 Build 51448)  -->
<!DOCTYPE svg PUBLIC "-//W3C//DTD SVG 1.1//EN" "http://www.w3.org/Graphics/SVG/1.1/DTD/svg11.dtd" [
	<!ENTITY ns_svg "http://www.w3.org/2000/svg">
	<!ENTITY ns_xlink "http://www.w3.org/1999/xlink">
]>
<svg  version="1.1" id="Layer_1" xmlns="&ns_svg;" xmlns:xlink="&ns_xlink;" width="324.832" height="60.616"
	 viewBox="0 0 324.832 60.616" overflow="visible" enable-background="new 0 0 324.832 60.616" xml:space="preserve">
<g>
	<polygon fill="#E7E7E8" points="72.697,45.908 74.087,45.908 73.358,50.012 77.691,50.012 78.42,45.908 79.812,45.908 
		78.191,55.087 76.801,55.087 77.477,51.24 73.143,51.24 72.467,55.087 71.077,55.087 	"/>
	<path fill="#E7E7E8" d="M83.065,52.631l0.568-3.213h1.336l-0.554,3.146c-0.162,0.917,0.189,1.458,0.999,1.458
		c0.864,0,1.363-0.486,1.552-1.473l0.554-3.131h1.337l-0.744,4.252c-0.053,0.27,0.014,0.392,0.244,0.392h0.46l-0.176,1.026h-0.649
		c-1.039,0-1.241-0.418-1.229-0.906v-0.094c-0.485,0.742-1.079,1.121-1.943,1.121C83.578,55.209,82.795,54.211,83.065,52.631"/>
	<path fill="#E7E7E8" d="M93.568,47.217c0-0.513,0.404-0.865,0.864-0.865c0.472,0,0.89,0.353,0.89,0.865
		c0,0.526-0.404,0.879-0.877,0.879C93.986,48.096,93.568,47.743,93.568,47.217 M92.65,53.643l0.729-4.226h1.35l-0.757,4.252
		c-0.041,0.271,0.028,0.392,0.257,0.392h0.472l-0.175,1.026h-0.661C92.813,55.087,92.447,54.736,92.65,53.643"/>
	<path fill="#E7E7E8" d="M98.185,53.994l0.959-0.648c0.323,0.486,0.742,0.796,1.444,0.796c0.662,0,0.918-0.243,0.918-0.606
		c0-0.365-0.297-0.474-1.147-0.879c-0.784-0.391-1.35-0.836-1.35-1.701c0-1.08,0.877-1.66,1.97-1.66
		c0.905,0,1.513,0.379,1.918,0.892l-0.891,0.729c-0.231-0.311-0.514-0.58-1.04-0.58c-0.419,0-0.716,0.188-0.716,0.527
		c0,0.322,0.284,0.498,0.932,0.795c0.89,0.405,1.607,0.81,1.607,1.754c0,1.082-0.743,1.797-2.214,1.797
		C99.414,55.209,98.603,54.682,98.185,53.994"/>
	<path fill="#E7E7E8" d="M106.38,53.994l0.958-0.648c0.324,0.486,0.743,0.796,1.445,0.796c0.661,0,0.917-0.243,0.917-0.606
		c0-0.365-0.297-0.474-1.147-0.879c-0.783-0.391-1.349-0.836-1.349-1.701c0-1.08,0.877-1.66,1.97-1.66
		c0.904,0,1.512,0.379,1.917,0.892l-0.891,0.729c-0.23-0.311-0.513-0.58-1.039-0.58c-0.419,0-0.716,0.188-0.716,0.527
		c0,0.322,0.283,0.498,0.931,0.795c0.891,0.405,1.607,0.81,1.607,1.754c0,1.082-0.743,1.797-2.214,1.797
		C107.608,55.209,106.798,54.682,106.38,53.994"/>
	<path fill="#E7E7E8" d="M119.34,51.779c-0.015-0.796-0.5-1.404-1.445-1.404c-0.891,0-1.498,0.541-1.688,1.404H119.34z
		 M117.841,54.102c0.756,0,1.229-0.284,1.579-0.594l0.797,0.851c-0.608,0.526-1.336,0.851-2.389,0.851
		c-1.823,0-3.024-1.174-3.024-2.85c0-1.809,1.43-3.064,3.131-3.064c1.918,0,2.929,1.445,2.687,3.402h-4.455
		C116.248,53.494,116.829,54.102,117.841,54.102"/>
	<path fill="#E7E7E8" d="M125.266,49.417h1.337l-0.23,1.081c0.432-0.743,1.067-1.202,1.931-1.202c1.241,0,2.024,1.013,1.741,2.593
		l-0.311,1.78c-0.04,0.271,0.028,0.394,0.257,0.394h0.459l-0.176,1.024h-0.648c-1.053,0-1.417-0.351-1.214-1.444l0.283-1.687
		c0.162-0.933-0.189-1.458-0.986-1.458c-0.864,0-1.377,0.471-1.552,1.458l-0.554,3.131h-1.336L125.266,49.417z"/>
	<path fill="#E7E7E8" d="M133.744,53.994l0.958-0.648c0.324,0.486,0.743,0.796,1.445,0.796c0.661,0,0.917-0.243,0.917-0.606
		c0-0.365-0.297-0.474-1.147-0.879c-0.783-0.391-1.349-0.836-1.349-1.701c0-1.08,0.877-1.66,1.97-1.66
		c0.904,0,1.512,0.379,1.917,0.892l-0.891,0.729c-0.23-0.311-0.513-0.58-1.039-0.58c-0.419,0-0.716,0.188-0.716,0.527
		c0,0.322,0.283,0.498,0.931,0.795c0.891,0.405,1.607,0.81,1.607,1.754c0,1.082-0.743,1.797-2.214,1.797
		C134.972,55.209,134.162,54.682,133.744,53.994"/>
	<path fill="#E7E7E8" d="M149.187,55.087h-1.337l1.715-9.746h1.337l-1,5.628c-0.067,0.393-0.161,0.77-0.256,1.067l2.632-2.619h1.553
		l-2.417,2.39l1.08,1.943c0.136,0.257,0.257,0.313,0.459,0.313h0.392l-0.176,1.024h-0.513c-0.769,0-1.039-0.256-1.376-0.903
		l-0.891-1.607l-0.905,0.796L149.187,55.087z"/>
	<path fill="#E7E7E8" d="M161.324,52.117c0-0.973-0.515-1.647-1.392-1.647c-0.998,0-1.634,0.81-1.634,1.985
		c0,0.958,0.515,1.592,1.364,1.592C160.621,54.047,161.324,53.238,161.324,52.117 M156.909,52.482c0-1.959,1.255-3.187,2.74-3.187
		c0.892,0,1.647,0.472,1.971,1.351l0.176-1.229h1.337l-0.743,4.252c-0.041,0.271,0.027,0.394,0.256,0.394h0.459l-0.174,1.024h-0.648
		c-1.053,0-1.229-0.364-1.229-0.892v-0.121c-0.459,0.729-1.026,1.135-1.862,1.135C157.894,55.209,156.909,54.143,156.909,52.482"/>
	<path fill="#E7E7E8" d="M171.569,52.063c0-0.971-0.553-1.592-1.43-1.592c-1.014,0-1.742,0.797-1.742,1.93
		c0,0.959,0.553,1.646,1.458,1.646C170.895,54.047,171.569,53.225,171.569,52.063 M167.587,49.417h1.338l-0.217,1
		c0.459-0.703,1.106-1.121,1.89-1.121c1.362,0,2.362,1.08,2.362,2.726c0,1.904-1.281,3.188-2.768,3.188
		c-0.972,0-1.714-0.527-2.051-1.363l-0.716,4.104h-1.337L167.587,49.417z"/>
	<path fill="#E7E7E8" d="M181.493,52.063c0-0.971-0.554-1.592-1.432-1.592c-1.012,0-1.741,0.797-1.741,1.93
		c0,0.959,0.554,1.646,1.458,1.646C180.817,54.047,181.493,53.225,181.493,52.063 M177.511,49.417h1.337l-0.216,1
		c0.457-0.703,1.105-1.121,1.889-1.121c1.363,0,2.363,1.08,2.363,2.726c0,1.904-1.283,3.188-2.769,3.188
		c-0.972,0-1.714-0.527-2.051-1.363l-0.716,4.104h-1.337L177.511,49.417z"/>
	<path fill="#E7E7E8" d="M191.187,51.779c-0.015-0.796-0.5-1.404-1.445-1.404c-0.892,0-1.5,0.541-1.688,1.404H191.187z
		 M189.687,54.102c0.756,0,1.229-0.284,1.579-0.594l0.798,0.851c-0.608,0.526-1.336,0.851-2.39,0.851
		c-1.823,0-3.024-1.174-3.024-2.85c0-1.809,1.431-3.064,3.131-3.064c1.918,0,2.93,1.445,2.688,3.402h-4.455
		C188.094,53.494,188.675,54.102,189.687,54.102"/>
	<path fill="#E7E7E8" d="M197.112,49.417h1.336l-0.256,1.161c0.498-0.917,1.08-1.27,1.754-1.27c0.365,0,0.58,0.082,0.797,0.203
		l-0.514,1.215c-0.188-0.121-0.391-0.162-0.646-0.162c-0.852,0-1.432,0.5-1.661,1.783l-0.474,2.739h-1.336L197.112,49.417z"/>
	<path fill="#E7E7E8" d="M209.032,53.994l0.959-0.648c0.323,0.486,0.742,0.796,1.444,0.796c0.661,0,0.917-0.243,0.917-0.606
		c0-0.365-0.297-0.474-1.146-0.879c-0.783-0.391-1.351-0.836-1.351-1.701c0-1.08,0.878-1.66,1.972-1.66
		c0.903,0,1.512,0.379,1.916,0.892l-0.891,0.729c-0.23-0.311-0.514-0.58-1.039-0.58c-0.419,0-0.716,0.188-0.716,0.527
		c0,0.322,0.282,0.498,0.931,0.795c0.891,0.405,1.607,0.81,1.607,1.754c0,1.082-0.743,1.797-2.215,1.797
		C210.261,55.209,209.45,54.682,209.032,53.994"/>
	<path fill="#E7E7E8" d="M218.617,47.217c0-0.513,0.405-0.865,0.864-0.865c0.472,0,0.891,0.353,0.891,0.865
		c0,0.526-0.404,0.879-0.877,0.879C219.036,48.096,218.617,47.743,218.617,47.217 M217.699,53.643l0.729-4.226h1.35l-0.756,4.252
		c-0.041,0.271,0.027,0.392,0.256,0.392h0.473l-0.176,1.026h-0.66C217.861,55.087,217.497,54.736,217.699,53.643"/>
	<path fill="#E7E7E8" d="M224.382,49.417h1.337l-0.229,1.081c0.432-0.743,1.066-1.202,1.93-1.202c1.242,0,2.025,1.013,1.742,2.593
		l-0.312,1.78c-0.04,0.271,0.028,0.394,0.257,0.394h0.459l-0.176,1.024h-0.648c-1.053,0-1.416-0.351-1.213-1.444l0.282-1.687
		c0.162-0.933-0.188-1.458-0.985-1.458c-0.865,0-1.377,0.471-1.553,1.458l-0.553,3.131h-1.337L224.382,49.417z"/>
	<path fill="#E7E7E8" d="M237.733,52.117c0.013-0.973-0.553-1.647-1.459-1.647c-1.039,0-1.7,0.81-1.7,1.985
		c0,0.958,0.54,1.592,1.418,1.592C237.005,54.047,237.733,53.238,237.733,52.117 M233.185,52.482c0-1.959,1.281-3.187,2.808-3.187
		c0.932,0,1.674,0.485,2.011,1.269l0.932-5.224h1.336l-1.471,8.328c-0.041,0.271,0.027,0.394,0.256,0.394h0.461l-0.177,1.024h-0.647
		c-1.053,0-1.242-0.364-1.242-0.903l0.013-0.137c-0.418,0.73-1.093,1.162-1.93,1.162C234.169,55.209,233.185,54.115,233.185,52.482"
		/>
	<path fill="#E7E7E8" d="M242.944,53.994l0.958-0.648c0.323,0.486,0.743,0.796,1.444,0.796c0.662,0,0.918-0.243,0.918-0.606
		c0-0.365-0.297-0.474-1.147-0.879c-0.782-0.391-1.349-0.836-1.349-1.701c0-1.08,0.877-1.66,1.97-1.66
		c0.905,0,1.512,0.379,1.917,0.892l-0.891,0.729c-0.23-0.311-0.514-0.58-1.039-0.58c-0.42,0-0.715,0.188-0.715,0.527
		c0,0.322,0.282,0.498,0.93,0.795c0.891,0.405,1.607,0.81,1.607,1.754c0,1.082-0.744,1.797-2.215,1.797
		C244.173,55.209,243.362,54.682,242.944,53.994"/>
	<polygon fill="#E7E7E8" points="258.887,49.281 257.497,49.281 257.7,48.162 260.439,48.162 259.21,55.087 257.86,55.087 	"/>
	<path fill="#E7E7E8" d="M268.702,50.767c0-0.891-0.567-1.538-1.5-1.538c-1.012,0-1.646,0.742-1.646,1.7
		c0,0.892,0.541,1.539,1.486,1.539C268.095,52.468,268.702,51.699,268.702,50.767 M266.784,54.007
		c0.284-0.31,0.743-0.621,0.933-0.756c-0.312,0.176-0.703,0.257-1.054,0.257c-1.377,0-2.498-1.053-2.498-2.564
		c0-1.742,1.351-2.89,3.052-2.89c1.687,0,2.862,1.147,2.862,2.754c0,1.026-0.621,1.998-1.351,2.794l-2.538,2.756h-1.593
		L266.784,54.007z"/>
	<path fill="#E7E7E8" d="M278.421,48.85c0-0.594-0.404-1.012-1.066-1.012c-0.688,0-1.215,0.459-1.215,1.201
		c0,0.594,0.405,1.014,1.08,1.014C277.922,50.053,278.421,49.594,278.421,48.85 M278.219,52.454c0-0.823-0.594-1.362-1.538-1.362
		c-0.986,0-1.701,0.58-1.701,1.565c0,0.771,0.607,1.364,1.553,1.364C277.504,54.021,278.219,53.428,278.219,52.454 M273.575,52.766
		c0-1.054,0.715-1.972,2.037-2.283c-0.539-0.322-0.821-0.85-0.821-1.483c0-1.296,1.052-2.255,2.604-2.255s2.416,0.945,2.416,2.039
		c0,0.863-0.58,1.553-1.472,1.863c0.933,0.418,1.271,1.187,1.271,1.89c0,1.7-1.418,2.672-3.159,2.672
		C274.735,55.208,273.575,54.128,273.575,52.766"/>
	<polygon fill="#E7E7E8" points="287.196,49.281 283.606,49.281 283.796,48.162 289.235,48.162 289.235,48.297 284.321,56.357 
		282.863,56.357 	"/>
	<path fill="#E7E7E8" d="M78.585,22.835c1.234,0,2.106-0.312,2.621-0.938c0.514-0.625,0.773-1.44,0.773-2.448
		c0-0.505-0.06-0.965-0.183-1.378c-0.119-0.413-0.318-0.77-0.59-1.073c-0.271-0.304-0.622-0.541-1.045-0.711
		c-0.423-0.173-0.949-0.259-1.576-0.259h-2.027v6.807H78.585z M87.4,31.9h-5.933l-2.86-4.697h-2.049V31.9h-5.481V11.422h7.77
		c1.385,0,2.61,0.205,3.673,0.617c1.064,0.41,1.962,0.98,2.697,1.7c0.731,0.724,1.29,1.574,1.671,2.546
		c0.382,0.973,0.573,2.032,0.573,3.176c0,1.487-0.317,2.798-0.949,3.932c-0.633,1.134-1.552,2.033-2.756,2.694L87.4,31.9z"/>
	<path fill="#E7E7E8" d="M104.294,21.3l-2.049,4.758h4.157L104.294,21.3z M99.747,31.9h-5.36l9.966-20.84
		c0.043-0.099,0.102-0.15,0.183-0.15c0.078,0,0.139,0.051,0.18,0.15l9.939,20.84h-5.662l-0.784-1.745h-7.71L99.747,31.9z"/>
	<polygon fill="#E7E7E8" points="122.574,11.423 136.489,11.423 136.489,16.028 128.055,16.028 128.055,20.789 135.496,20.789 
		135.496,25.395 128.055,25.395 128.055,31.901 122.574,31.901 	"/>
	<path fill="#E7E7E8" d="M170.339,11.423h5.931l-6.806,8.882l7.622,11.597h-6.478l-4.877-7.438c-0.24,0.3-0.453,0.561-0.633,0.784
		c-0.181,0.218-0.371,0.451-0.572,0.691c-0.201,0.241-0.371,0.453-0.513,0.633v5.331h-5.479V11.423h5.479v8.491L170.339,11.423z"/>
	<path fill="#E7E7E8" d="M193.647,21.3l-2.049,4.758h4.155L193.647,21.3z M189.101,31.9h-5.361l9.967-20.84
		c0.042-0.099,0.102-0.15,0.184-0.15c0.077,0,0.137,0.051,0.18,0.15l9.938,20.84h-5.661l-0.785-1.745h-7.709L189.101,31.9z"/>
	<path fill="#E7E7E8" d="M219.437,22.866c1.23,0,2.105-0.314,2.621-0.942c0.514-0.628,0.771-1.449,0.771-2.463
		c0-0.503-0.062-0.967-0.181-1.381c-0.122-0.416-0.319-0.774-0.591-1.077c-0.273-0.306-0.622-0.543-1.045-0.716
		c-0.426-0.173-0.948-0.259-1.576-0.259h-2.029v6.838H219.437z M217.407,31.9h-5.481V11.422h7.771c1.387,0,2.609,0.205,3.676,0.617
		c1.063,0.41,1.961,0.98,2.693,1.7c0.734,0.724,1.29,1.574,1.672,2.546c0.381,0.973,0.572,2.032,0.572,3.176
		c0,1.145-0.191,2.205-0.572,3.177c-0.382,0.975-0.938,1.819-1.672,2.532c-0.732,0.713-1.63,1.275-2.693,1.685
		c-1.066,0.413-2.289,0.619-3.676,0.619h-2.289V31.9z"/>
	<path fill="#E7E7E8" d="M244.372,22.866c1.232,0,2.105-0.314,2.621-0.942c0.514-0.628,0.772-1.449,0.772-2.463
		c0-0.503-0.06-0.967-0.183-1.381c-0.12-0.416-0.319-0.774-0.59-1.077c-0.272-0.306-0.623-0.543-1.045-0.716
		c-0.424-0.173-0.949-0.259-1.576-0.259h-2.027v6.838H244.372z M242.345,31.9h-5.482V11.422h7.771c1.385,0,2.609,0.205,3.673,0.617
		c1.063,0.41,1.962,0.98,2.696,1.7c0.73,0.724,1.29,1.574,1.672,2.546c0.381,0.973,0.572,2.032,0.572,3.176
		c0,1.145-0.191,2.205-0.572,3.177c-0.382,0.975-0.941,1.819-1.672,2.532c-0.734,0.713-1.633,1.275-2.696,1.685
		c-1.063,0.413-2.288,0.619-3.673,0.619h-2.289V31.9z"/>
	<polygon fill="#E7E7E8" points="261.798,11.423 276.163,11.423 276.163,16.028 267.278,16.028 267.278,20.789 274.688,20.789 
		274.688,25.155 267.278,25.155 267.278,27.292 276.586,27.292 276.586,31.901 261.798,31.901 	"/>
	<path fill="#E7E7E8" d="M292.771,22.835c1.23,0,2.105-0.312,2.619-0.938c0.515-0.625,0.771-1.44,0.771-2.448
		c0-0.505-0.061-0.965-0.18-1.378c-0.123-0.413-0.319-0.77-0.592-1.073c-0.273-0.304-0.62-0.541-1.045-0.711
		c-0.426-0.173-0.947-0.259-1.574-0.259h-2.03v6.807H292.771z M301.582,31.9h-5.933l-2.861-4.697h-2.048V31.9h-5.481V11.422h7.771
		c1.386,0,2.608,0.205,3.675,0.617c1.064,0.41,1.962,0.98,2.694,1.7c0.733,0.724,1.29,1.574,1.672,2.546
		c0.381,0.973,0.571,2.032,0.571,3.176c0,1.487-0.316,2.798-0.948,3.932c-0.632,1.134-1.552,2.033-2.756,2.694L301.582,31.9z"/>
	<path fill="#E7E7E8" d="M317.062,32.2c-1.145,0-2.174-0.119-3.085-0.359c-0.915-0.24-1.719-0.541-2.412-0.904
		c-0.692-0.36-1.286-0.769-1.776-1.219c-0.49-0.455-0.898-0.89-1.221-1.311l3.977-2.98c0.502,0.621,1.085,1.149,1.748,1.58
		c0.66,0.431,1.505,0.648,2.529,0.648c0.823,0,1.461-0.125,1.912-0.377c0.452-0.25,0.676-0.669,0.676-1.251
		c0-0.441-0.164-0.786-0.494-1.037c-0.334-0.251-0.84-0.489-1.521-0.708l-2.409-0.815c-0.743-0.241-1.426-0.541-2.049-0.901
		c-0.621-0.364-1.159-0.795-1.61-1.297c-0.453-0.501-0.803-1.078-1.054-1.731c-0.254-0.651-0.377-1.401-0.377-2.245
		c0-1.003,0.192-1.886,0.573-2.649c0.378-0.763,0.896-1.4,1.549-1.913c0.652-0.512,1.4-0.898,2.245-1.16
		c0.844-0.261,1.715-0.392,2.62-0.392c0.904,0,1.711,0.077,2.425,0.228c0.712,0.148,1.339,0.35,1.88,0.601
		c0.544,0.254,1.02,0.538,1.432,0.86c0.41,0.32,0.769,0.661,1.068,1.023l-3.132,3.282c-0.42-0.442-0.883-0.797-1.386-1.068
		c-0.5-0.272-1.164-0.408-1.987-0.408c-0.661,0-1.16,0.136-1.489,0.408c-0.332,0.271-0.498,0.608-0.498,1.008
		c0,0.402,0.114,0.713,0.346,0.935c0.231,0.22,0.597,0.41,1.102,0.572l2.709,0.902c1.023,0.342,1.887,0.718,2.589,1.131
		c0.703,0.41,1.267,0.873,1.687,1.384c0.422,0.513,0.727,1.074,0.921,1.686c0.19,0.614,0.284,1.28,0.284,2.003
		c0,0.944-0.151,1.813-0.451,2.605c-0.301,0.795-0.768,1.477-1.4,2.049c-0.632,0.572-1.439,1.02-2.425,1.342
		C319.573,32.041,318.407,32.2,317.062,32.2"/>
	<path fill="#E7E7E8" d="M25.768,47.158c5.676-0.521,8.979-1.496,10.74-2.216l7.609,12.138H31.774L25.768,47.158z M15.328,57.08
		H3.589v-3.253L3.584,53.69c0-0.003,0.111-2.609,0.614-3.151c0.968-1.048,3.684-2.756,11.13-2.99V57.08z M13.435,23.563l1.533-4.147
		l0.818,1.176L15.5,21.365l0.47,0.96L13.435,23.563z M39.615,43.241c2.876-1.921,8.475-6.71,9.393-15.336
		C50.299,15.748,47.459,9.407,38.14,3.666C31.719-0.23,24.352-0.005,24.106,0.005H0.053v42.266c0,0,1.058-3.143,3.921-4.857
		c3.265-1.953,9.288-2.359,12.987-2.076l6.356,0.004c0.691,0.045,4.558,0.154,7.472-2.61c0.247-0.234,0.476-0.482,0.694-0.741
		l-0.027,0.062l-0.05,0.115c-0.001-0.009-0.035,0.057-0.051,0.083c-0.331,0.558-0.617,1.159-1.05,1.684l-0.302,0.41
		c-0.097,0.143-0.201,0.276-0.32,0.393c-0.226,0.246-0.454,0.492-0.684,0.742c-0.236,0.25-0.554,0.48-0.829,0.724l-0.413,0.347
		l-0.443,0.299c-0.302,0.189-0.578,0.424-0.903,0.582c-0.321,0.166-0.643,0.332-0.966,0.498c-0.325,0.151-0.662,0.246-0.992,0.377
		c-0.174,0.055-0.315,0.137-0.515,0.17l-0.572,0.127l-0.574,0.127l-0.137,0.029c-0.005,0.002-0.01,0.002-0.006,0.002l-0.035,0.004
		l-0.069,0.008l-0.278,0.033c-0.374,0.041-0.736,0.097-1.119,0.129l-1.175,0.084c-0.357,0.025-0.774,0.031-1.157,0.049
		c-0.78,0.029-1.557,0.058-2.327,0.087c-0.785,0.03-1.564,0.071-2.332,0.114c-0.755,0.078-1.5,0.154-2.232,0.229
		c-1.52,0.168-2.925,0.489-4.268,0.91c-0.327,0.104-0.636,0.219-0.947,0.326l-0.232,0.081l-0.241,0.095
		c-0.153,0.063-0.305,0.125-0.455,0.187c-0.301,0.117-0.591,0.256-0.874,0.396c-0.284,0.139-0.563,0.268-0.831,0.438
		c-0.262,0.164-0.55,0.306-0.768,0.479c-0.231,0.175-0.434,0.322-0.671,0.512c-0.203,0.193-0.4,0.383-0.592,0.566
		c-0.188,0.186-0.338,0.398-0.499,0.587c-0.625,0.803-0.953,1.584-1.146,2.269c-0.054,0.166-0.105,0.323-0.153,0.471
		c-0.028,0.152-0.054,0.294-0.078,0.426c-0.045,0.259-0.095,0.49-0.109,0.675C0.021,48.279,0,48.475,0,48.475
		s0.047-0.191,0.137-0.549c0.039-0.183,0.115-0.388,0.197-0.646c0.042-0.127,0.086-0.265,0.134-0.41
		c0.063-0.137,0.13-0.282,0.2-0.437c0.246-0.616,0.677-1.352,1.294-2.01c0.167-0.16,0.319-0.342,0.509-0.496
		c0.191-0.151,0.387-0.308,0.588-0.467c0.222-0.142,0.449-0.287,0.682-0.437c0.237-0.16,0.484-0.249,0.731-0.382
		c0.239-0.129,0.516-0.233,0.793-0.344c0.275-0.113,0.558-0.224,0.857-0.314c0.147-0.049,0.296-0.098,0.446-0.148l0.214-0.074
		l0.236-0.067c0.314-0.091,0.636-0.19,0.957-0.274c1.253-0.324,2.653-0.554,4.064-0.674c0.734-0.051,1.481-0.104,2.237-0.156
		c0.746-0.016,1.501-0.033,2.261-0.061c0.775-0.021,1.557-0.041,2.341-0.063c0.399-0.014,0.766-0.014,1.193-0.037l1.176-0.071
		c0.398-0.035,0.814-0.101,1.219-0.152l0.306-0.041l0.076-0.01l0.038-0.005l0.073-0.014l0.143-0.033l0.572-0.133
		c0.381-0.086,0.757-0.162,1.164-0.33c0.395-0.152,0.807-0.28,1.18-0.459c0.362-0.191,0.723-0.383,1.082-0.571
		c0.358-0.192,0.665-0.462,0.995-0.687l0.485-0.354l0.437-0.391c0.277-0.26,0.56-0.477,0.824-0.768
		c0.261-0.298,0.52-0.595,0.776-0.888c0.272-0.286,0.44-0.618,0.656-0.923c0.44-0.601,0.723-1.273,1.046-1.896l0.068-0.139
		l0.044-0.118l0.088-0.234c0.059-0.156,0.117-0.311,0.174-0.465c0.113-0.309,0.241-0.6,0.311-0.935
		c0.167-0.646,0.336-1.267,0.409-1.863c0.045-0.297,0.098-0.588,0.135-0.873c0.013-0.164,0.026-0.321,0.039-0.481
		c0.301-1.325,0.423-2.801,0.359-4.427c-0.003-0.559-0.131-4.424-2.952-7.288c-1.984-2.014-4.758-3.036-8.243-3.036h-6.533
		l-4.611,12.475l7.625-3.726l-1.41-2.886l0.859-2.326h4.07c2.488,0,4.405,0.658,5.699,1.957c1.948,1.954,1.959,4.821,1.959,4.84
		v0.05l0.002,0.05c0.128,3.136-0.556,5.445-2.031,6.861c-1.96,1.883-4.816,1.673-4.833,1.672l-6.384-0.008
		c-1.255-0.092-8.978-0.543-13.574,1.893V3.541L24.168,3.54c0.071-0.001,6.647-0.181,12.126,3.143
		c8.109,4.996,10.343,10.061,9.197,20.848c-1.004,9.443-8.778,13.363-9.104,13.525l-0.263,0.156
		c-0.039,0.027-4.271,2.772-19.027,2.772c-7.734,0-12.945,1.397-15.496,4.151c-1.48,1.601-1.564,5.248-1.548,5.728v6.752h18.812
		V47.508c1.028-0.015,1.999-0.045,2.927-0.086l7.989,13.194h20.727L39.615,43.241z"/>
</g>
</svg>
