<?xml version="1.0" encoding="utf-8"?>
<!-- Generator: Adobe Illustrator 12.0.0, SVG Export Plug-In . SVG Version: 6.00 Build 51448)  -->
<!DOCTYPE svg PUBLIC "-//W3C//DTD SVG 1.1//EN" "http://www.w3.org/Graphics/SVG/1.1/DTD/svg11.dtd" [
	<!ENTITY ns_svg "http://www.w3.org/2000/svg">
	<!ENTITY ns_xlink "http://www.w3.org/1999/xlink">
]>
<svg  version="1.1" id="Layer_1" xmlns="&ns_svg;" xmlns:xlink="&ns_xlink;" width="224.847" height="22.579"
	 viewBox="0 0 224.847 22.579" overflow="visible" enable-background="new 0 0 224.847 22.579" xml:space="preserve">
<g>
	<path fill="#E7E7E8" d="M58,8.939h0.356c2.886,0,5.77,0,8.657-0.001c0.186,0,0.374-0.007,0.56-0.024
		c1.38-0.133,2.161-0.913,2.202-2.197c0.036-1.139-0.738-2.014-2.024-2.219c-0.589-0.093-1.191-0.134-1.789-0.138
		c-2.522-0.014-5.046-0.005-7.569-0.005H58V8.939z M57.996,18.212c0.114,0.009,0.211,0.024,0.309,0.024
		c3.021,0.001,6.044,0.021,9.064-0.018c0.658-0.009,1.345-0.148,1.962-0.377c1.033-0.386,1.494-1.265,1.444-2.463
		c-0.045-1.057-0.614-1.885-1.637-2.188c-0.587-0.176-1.224-0.269-1.836-0.275c-2.96-0.025-5.919-0.012-8.879-0.012h-0.428V18.212z
		 M72.516,10.644c0.813,0.506,1.489,1.112,2.002,1.89c1.84,2.785,1.184,8.055-3.914,9.276c-1.093,0.262-2.245,0.374-3.373,0.386
		c-4.408,0.042-8.818,0.018-13.228,0.018c-0.529,0-0.589-0.054-0.589-0.564c-0.001-6.899-0.001-13.796,0-20.695
		c0-0.491,0.086-0.574,0.597-0.574c4.211-0.001,8.42-0.014,12.63,0.008c1.565,0.007,3.114,0.168,4.557,0.858
		c2.365,1.138,3.453,3.358,3.19,5.864C74.226,8.662,73.913,9.196,72.516,10.644"/>
	<path fill="#E7E7E8" d="M32.264,18.115h0.487h14.39c0.636,0,0.69,0.054,0.69,0.667c0.001,0.96,0.003,1.919,0,2.88
		c-0.002,0.479-0.077,0.552-0.571,0.552H28.224c-0.468,0-0.547-0.079-0.548-0.535V0.949c0-0.462,0.105-0.569,0.567-0.569
		c6.333-0.001,12.666-0.001,18.999,0c0.478,0,0.587,0.109,0.589,0.591c0.003,0.971,0.001,1.941,0,2.914
		c-0.001,0.555-0.064,0.618-0.622,0.618c-4.81,0.001-9.619,0-14.428,0h-0.511v4.411h0.476h12.891c0.602,0,0.669,0.067,0.67,0.65
		v2.731c-0.001,0.559-0.06,0.62-0.615,0.62H32.726h-0.462V18.115z"/>
	<path fill="#E7E7E8" d="M196.025,7.153v0.395v14.055c0,0.579-0.031,0.61-0.612,0.61h-3.11c-0.632,0-0.665-0.033-0.665-0.679V5.414
		c0-1.475-0.001-2.951,0-4.426c0.002-0.521,0.087-0.607,0.603-0.609c1.063-0.002,2.123,0.008,3.187-0.006
		c0.275-0.002,0.465,0.091,0.645,0.291c4.025,4.453,8.055,8.902,12.084,13.35c0.512,0.566,1.026,1.13,1.623,1.669v-0.428V1.091
		c0-0.652,0.061-0.712,0.729-0.712c1.038-0.001,2.073-0.001,3.109,0c0.49,0,0.61,0.111,0.61,0.574c0.001,6.91,0.001,13.821,0,20.731
		c0,0.433-0.095,0.526-0.522,0.527c-1.124,0.002-2.248,0.014-3.373-0.012c-0.192-0.003-0.437-0.111-0.569-0.253
		c-3.217-3.481-6.424-6.972-9.631-10.461c-1.274-1.385-2.548-2.771-3.819-4.156c-0.067-0.071-0.126-0.15-0.188-0.226
		C196.093,7.12,196.061,7.137,196.025,7.153"/>
	<path fill="#E7E7E8" d="M114.782,0.035c3.036,0.01,5.33,0.261,7.495,1.225c1.611,0.718,2.997,1.709,4,3.172
		c0.384,0.559,0.324,0.722-0.332,0.883c-1.331,0.325-2.659,0.659-3.997,0.966c-0.154,0.036-0.433-0.032-0.51-0.146
		c-0.734-1.1-1.824-1.653-3.07-1.949c-1.908-0.456-3.832-0.51-5.745-0.047c-0.449,0.108-0.888,0.33-1.283,0.572
		c-0.993,0.606-1.321,2.532,0.293,3.119c1.008,0.369,2.083,0.576,3.143,0.79c2.211,0.443,4.44,0.811,6.647,1.276
		c0.732,0.156,1.449,0.461,2.124,0.794c2.06,1.021,2.963,2.744,2.894,4.966c-0.09,2.925-1.58,4.882-4.466,5.953
		c-1.762,0.653-3.603,0.888-5.467,0.951c-2.208,0.074-4.394-0.059-6.517-0.726c-2.58-0.811-4.596-2.325-5.969-4.641
		c-0.279-0.476-0.214-0.639,0.329-0.78c1.254-0.325,2.513-0.643,3.765-0.973c0.337-0.09,0.548-0.027,0.736,0.292
		c0.622,1.049,1.565,1.755,2.699,2.182c2.471,0.933,4.993,0.993,7.534,0.298c0.605-0.166,1.151-0.458,1.605-0.907
		c0.781-0.775,0.968-2.497-0.577-3.08c-0.875-0.328-1.824-0.479-2.753-0.65c-2.256-0.414-4.526-0.752-6.775-1.2
		c-1.356-0.271-2.617-0.83-3.646-1.781c-1.612-1.491-2.107-3.844-1.276-5.983c0.741-1.909,2.237-3.026,4.11-3.721
		C111.61,0.208,113.532,0.035,114.782,0.035"/>
	<path fill="#E7E7E8" d="M12.104,22.572c-2.109,0.041-4.19-0.143-6.203-0.813c-2.489-0.829-4.42-2.34-5.746-4.582
		c-0.27-0.453-0.201-0.629,0.309-0.761c1.265-0.33,2.533-0.654,3.8-0.98c0.249-0.062,0.484-0.1,0.652,0.184
		c0.776,1.334,1.994,2.115,3.452,2.538c2.33,0.676,4.678,0.73,7.002-0.015c0.516-0.166,1.031-0.474,1.422-0.842
		c1.065-1.006,0.755-2.614-0.626-3.118c-0.855-0.311-1.784-0.443-2.687-0.613c-2.354-0.434-4.722-0.791-7.063-1.282
		c-1.406-0.295-2.682-0.944-3.673-2.019C0.927,8.304,0.967,5.01,2.83,2.896C3.928,1.65,5.357,0.927,6.954,0.569
		c3.803-0.85,7.58-0.829,11.256,0.612c1.742,0.684,3.193,1.766,4.25,3.317c0.313,0.459,0.231,0.672-0.315,0.805
		c-1.355,0.329-2.71,0.665-4.07,0.972c-0.155,0.036-0.432-0.033-0.509-0.147c-0.751-1.105-1.851-1.662-3.109-1.956
		c-1.898-0.443-3.81-0.495-5.711-0.035c-0.415,0.1-0.826,0.289-1.191,0.513C6.866,5.072,6.591,5.726,6.673,6.514
		c0.075,0.705,0.529,1.165,1.165,1.36c0.997,0.302,2.018,0.539,3.042,0.745c2.319,0.466,4.66,0.85,6.97,1.359
		c1.354,0.299,2.583,0.921,3.518,1.987c0.85,0.965,1.178,2.116,1.203,3.37c0.058,2.951-1.399,5.074-4.265,6.199
		C16.314,22.315,14.224,22.529,12.104,22.572"/>
	<path fill="#E7E7E8" d="M171.614,13.251h7.437c-1.234-2.444-2.448-4.849-3.687-7.3C174.098,8.415,172.863,10.818,171.614,13.251
		 M186.051,22.234c-0.675,0-1.35-0.006-2.024,0.002c-0.27,0.006-0.429-0.091-0.552-0.339c-0.71-1.434-1.439-2.858-2.151-4.294
		c-0.121-0.244-0.251-0.356-0.556-0.354c-3.623,0.014-7.246,0.011-10.869,0.003c-0.263,0-0.392,0.08-0.508,0.313
		c-0.702,1.425-1.431,2.838-2.135,4.263c-0.143,0.294-0.32,0.418-0.658,0.414c-1.286-0.016-2.573-0.005-3.86-0.007
		c-0.587,0-0.719-0.214-0.445-0.733c2.358-4.493,4.72-8.988,7.077-13.482c1.266-2.411,2.536-4.818,3.791-7.234
		c0.156-0.304,0.346-0.433,0.697-0.427c1.062,0.021,2.123,0.016,3.185,0.004c0.317-0.005,0.503,0.11,0.647,0.388
		c3.207,6.178,6.422,12.351,9.637,18.526c0.393,0.754,0.789,1.506,1.18,2.261c0.243,0.474,0.106,0.693-0.432,0.698
		C187.399,22.236,186.726,22.234,186.051,22.234"/>
	<path fill="#E7E7E8" d="M90.319,5.947c-1.279,2.486-2.512,4.889-3.753,7.307h7.449C92.782,10.818,91.568,8.419,90.319,5.947
		 M101.013,22.234c-0.674,0-1.349-0.008-2.023,0.002c-0.286,0.008-0.456-0.1-0.582-0.356c-0.715-1.446-1.447-2.883-2.162-4.33
		c-0.106-0.216-0.224-0.3-0.478-0.298c-3.647,0.008-7.295,0.008-10.943-0.001c-0.255-0.001-0.372,0.084-0.476,0.298
		c-0.703,1.425-1.426,2.839-2.123,4.268c-0.152,0.309-0.338,0.432-0.689,0.425c-1.263-0.017-2.522-0.005-3.785-0.007
		c-0.643,0-0.775-0.202-0.486-0.756c2.763-5.27,5.527-10.537,8.293-15.808c0.818-1.56,1.65-3.113,2.446-4.682
		c0.227-0.447,0.479-0.668,1.023-0.638c0.984,0.051,1.974,0.024,2.96,0.01c0.334-0.006,0.521,0.119,0.672,0.409
		c3.387,6.527,6.782,13.052,10.174,19.575c0.215,0.415,0.44,0.827,0.648,1.246c0.203,0.406,0.055,0.638-0.406,0.643
		C102.388,22.24,101.699,22.234,101.013,22.234"/>
	<path fill="#E7E7E8" d="M142.526,4.43v0.534v16.563c0,0.666-0.019,0.687-0.688,0.687h-3.185c-0.634,0-0.686-0.048-0.686-0.664
		c-0.001-3.136,0-6.27,0-9.405V4.912c0-0.144-0.001-0.288-0.001-0.482h-0.475h-7.27c-0.573,0-0.649-0.073-0.649-0.639
		c-0.003-0.947-0.004-1.894,0-2.841c0.004-0.464,0.11-0.571,0.572-0.571c6.745-0.001,13.488-0.001,20.234,0
		c0.451,0,0.567,0.121,0.568,0.575c0.004,0.971,0.004,1.943,0,2.913c-0.001,0.453-0.112,0.561-0.578,0.561
		c-2.447,0.002-4.896,0.002-7.344,0.002H142.526z"/>
	<path fill="#E7E7E8" d="M159.243,11.323v10.214c0,0.643-0.034,0.676-0.669,0.676h-3.407c-0.491,0-0.586-0.092-0.586-0.583v-7.965
		V1.091c0-0.635,0.079-0.711,0.736-0.711c1.099-0.002,2.198-0.002,3.297,0c0.55,0,0.629,0.076,0.629,0.617V11.323z"/>
	<path fill="#E7E7E8" d="M224.434,1.207c-0.374,0.85-0.746,1.701-1.128,2.549c-0.098,0.214-0.233,0.41-0.352,0.617
		c-0.125-0.199-0.271-0.389-0.369-0.6c-0.39-0.847-0.762-1.699-1.215-2.536v3.118h-0.369V0.594c0.36-0.119,0.564-0.03,0.714,0.338
		c0.373,0.92,0.794,1.823,1.231,2.816c0.347-0.784,0.661-1.495,0.976-2.203c0.089-0.202,0.202-0.398,0.266-0.608
		c0.099-0.327,0.281-0.476,0.659-0.353V4.36h-0.337V1.222C224.483,1.217,224.46,1.212,224.434,1.207"/>
	<path fill="#E7E7E8" d="M218.739,0.898h-1.268c-0.086-0.242-0.036-0.352,0.217-0.349c0.823,0.006,1.649,0.007,2.473-0.002
		c0.241-0.002,0.32,0.083,0.241,0.347h-1.284v3.462h-0.379V0.898z"/>
</g>
</svg>
